<?xml version="1.0" standalone="no"?>
<!DOCTYPE svg PUBLIC "-//W3C//DTD SVG 20010904//EN"
 "http://www.w3.org/TR/2001/REC-SVG-20010904/DTD/svg10.dtd">
<svg version="1.0" xmlns="http://www.w3.org/2000/svg"
 width="500.000000pt" height="500.000000pt" viewBox="0 0 500.000000 500.000000"
 preserveAspectRatio="xMidYMid meet">
<metadata>
Created by potrace 1.15, written by Peter Selinger 2001-2017
</metadata>
<g transform="translate(0.000000,500.000000) scale(0.100000,-0.100000)"
fill="#000000" stroke="none">
<path d="M0 2929 l0 -2070 23 6 c12 4 27 13 33 21 6 8 19 14 28 14 9 0 25 9
36 20 11 11 27 20 36 20 9 0 18 9 21 19 3 14 15 21 37 23 19 2 31 8 31 18 0 8
11 17 25 20 16 4 24 12 24 23 -1 13 7 17 38 17 35 0 40 3 35 19 -4 17 1 20 32
23 28 2 36 7 35 21 -1 11 4 17 15 16 39 -4 61 2 61 16 0 8 9 15 19 15 29 0 51
11 51 25 0 7 14 15 31 19 22 4 30 10 25 21 -4 12 3 15 30 15 27 0 37 5 41 20
3 13 14 20 29 20 14 0 24 6 24 14 0 15 21 26 51 26 10 0 19 6 19 14 0 8 14 17
31 21 17 4 33 13 36 21 3 8 23 17 44 20 23 4 39 12 39 20 0 8 7 14 16 14 9 0
27 11 39 24 12 13 28 26 36 29 12 5 12 7 -1 16 -13 9 -13 11 3 11 10 0 17 8
17 20 0 13 7 20 20 20 24 0 27 18 5 26 -14 6 -13 8 2 19 21 15 29 109 18 220
-5 55 -11 75 -21 75 -9 0 -14 11 -14 34 0 54 -11 96 -26 96 -9 0 -14 11 -14
30 0 20 5 30 15 30 21 0 21 68 0 76 -9 4 -15 19 -15 41 0 26 -5 36 -19 40 -11
3 -21 13 -24 24 -4 14 -14 19 -36 19 -17 0 -31 5 -31 12 0 16 -51 68 -66 68
-7 0 -15 21 -19 51 -4 29 -13 53 -21 56 -9 3 -14 20 -14 45 0 44 -16 82 -31
73 -5 -4 -9 61 -9 168 0 157 2 175 18 181 9 3 24 11 33 17 9 7 24 9 34 5 15
-5 17 -16 12 -72 -2 -36 -10 -71 -16 -77 -12 -12 -15 -57 -3 -57 4 1 22 21 40
46 29 39 38 45 65 42 29 -3 32 -7 35 -38 2 -19 -2 -61 -8 -93 -13 -67 -4 -87
39 -87 19 0 34 10 50 30 29 39 71 152 71 189 0 37 38 162 56 181 7 9 25 42 39
75 28 62 29 94 7 180 -21 78 -35 161 -39 232 -4 54 -10 76 -24 89 -23 21 -25
76 -3 95 13 10 20 10 45 -5 59 -35 134 -18 144 32 3 15 10 41 15 58 6 17 10
49 10 71 0 48 23 73 67 73 17 0 59 14 93 32 50 25 65 29 79 20 9 -7 27 -17 41
-23 45 -18 97 -59 108 -84 7 -14 17 -25 25 -25 7 0 30 -9 52 -20 22 -11 44
-20 49 -20 5 0 29 -21 53 -46 36 -37 47 -43 59 -34 20 17 18 22 -17 61 -30 34
-34 57 -14 101 7 19 4 21 -47 32 -22 5 -28 12 -28 32 0 30 6 33 105 42 63 6
80 10 83 24 3 17 -19 44 -53 64 -11 6 -15 15 -11 22 10 17 93 15 103 -2 4 -7
22 -21 40 -30 61 -31 61 -62 1 -99 -18 -11 -28 -27 -30 -49 -4 -40 -27 -47
-73 -22 -18 9 -40 14 -49 11 -26 -10 -15 -40 21 -57 33 -16 105 -92 116 -123
4 -10 22 -24 40 -32 19 -8 39 -20 45 -28 7 -7 40 -22 74 -32 66 -19 98 -39 98
-61 0 -7 22 -39 49 -71 26 -32 62 -86 79 -119 17 -34 45 -74 61 -90 17 -16 34
-44 37 -62 4 -18 15 -37 25 -42 40 -22 139 -2 139 28 0 48 -23 94 -55 113 -21
13 -38 33 -45 55 -6 19 -15 34 -20 34 -4 0 -13 14 -19 32 -6 17 -22 45 -35 63
-27 35 -36 66 -21 71 16 6 91 -71 99 -100 7 -29 96 -125 133 -145 13 -6 27
-29 34 -51 10 -33 9 -43 -4 -63 -9 -14 -13 -34 -11 -45 4 -15 -11 -36 -60 -86
-36 -36 -66 -70 -66 -75 0 -15 73 -23 104 -12 15 6 37 11 48 11 17 0 18 -2 8
-15 -7 -8 -21 -15 -31 -15 -11 0 -19 -5 -19 -11 0 -13 -62 -39 -96 -39 -15 0
-36 8 -46 17 -18 16 -21 16 -47 0 -16 -9 -45 -17 -63 -17 -38 0 -57 -17 -77
-67 -15 -38 -48 -49 -74 -25 -19 16 -20 16 -31 -2 -27 -45 -43 -59 -61 -53
-14 6 -16 15 -11 51 6 40 5 45 -16 52 -21 8 -170 12 -480 15 -102 1 -121 -2
-145 -19 -15 -11 -43 -23 -60 -27 -18 -3 -33 -10 -33 -14 0 -13 153 -7 176 6
18 10 24 10 35 -3 19 -23 -1 -48 -42 -54 -44 -7 -119 -42 -115 -55 1 -6 62
-12 142 -15 151 -5 187 -16 182 -53 -3 -19 -11 -23 -57 -27 -35 -3 -56 -10
-59 -19 -4 -12 16 -13 129 -7 193 10 264 26 301 68 16 18 36 46 44 61 12 23
20 28 37 22 12 -3 40 -9 62 -12 51 -7 71 -25 80 -71 4 -20 11 -42 17 -49 5 -7
11 -63 12 -125 2 -75 9 -130 21 -166 15 -44 16 -58 5 -95 -7 -23 -14 -59 -17
-79 -6 -48 -21 -60 -59 -49 -21 6 -36 4 -49 -5 -20 -15 -56 -10 -90 11 -30 18
-165 25 -165 7 0 -21 50 -61 85 -68 19 -3 56 -21 85 -40 28 -18 78 -46 110
-61 33 -15 62 -33 64 -40 11 -27 -29 -50 -95 -57 -94 -9 -453 -11 -467 -2 -40
25 21 200 107 306 13 16 21 40 21 66 0 27 9 54 25 79 28 40 27 50 -2 41 -32
-10 -153 -144 -153 -170 0 -8 -7 -19 -15 -26 -8 -7 -19 -26 -23 -43 -5 -19
-20 -37 -37 -47 -35 -20 -50 -65 -31 -95 7 -11 17 -39 21 -63 4 -23 14 -46 23
-51 15 -9 15 -11 1 -28 -19 -21 -39 -77 -39 -106 0 -20 1 -20 25 3 13 13 27
31 30 40 8 26 78 53 137 53 29 0 96 -10 148 -21 111 -23 301 -37 327 -24 43
22 72 23 93 2 11 -11 17 -26 14 -34 -3 -8 -38 -35 -78 -60 -68 -42 -77 -45
-147 -47 -41 -1 -99 2 -130 6 -62 8 -77 -1 -59 -35 17 -31 107 -72 190 -86 41
-7 107 -18 146 -25 69 -12 71 -12 117 15 29 17 49 37 53 52 11 43 56 57 75 23
9 -18 6 -32 -20 -83 -16 -33 -36 -77 -44 -96 -12 -30 -25 -39 -86 -65 -40 -17
-74 -38 -77 -48 -3 -9 -15 -22 -27 -28 -12 -6 -32 -21 -45 -32 l-23 -21 -22
27 c-25 30 -71 50 -96 42 -9 -3 -24 -18 -34 -34 -33 -57 -163 -74 -245 -32
-23 12 -46 21 -51 21 -17 0 -101 61 -111 81 -13 23 -39 25 -66 4 -10 -8 -30
-15 -43 -15 -14 0 -38 -15 -58 -35 -39 -40 -34 -59 16 -70 17 -4 34 -18 46
-41 10 -19 27 -40 37 -45 10 -5 18 -16 18 -24 0 -8 11 -26 25 -41 14 -15 25
-32 25 -38 0 -16 68 -68 108 -81 19 -7 42 -22 51 -34 15 -19 21 -21 56 -12 22
5 34 9 28 10 -19 1 -16 16 13 58 l25 38 -21 9 c-15 7 -20 17 -18 35 4 34 31
40 238 52 157 8 176 7 187 -7 7 -9 10 -29 7 -44 -6 -29 16 -60 42 -60 26 0 93
-39 105 -61 6 -12 12 -51 14 -88 3 -55 0 -68 -16 -79 -16 -11 -18 -21 -13 -61
8 -59 -7 -91 -41 -91 -14 0 -25 5 -25 12 0 6 -3 9 -6 5 -3 -3 -3 -20 1 -37 6
-27 10 -31 30 -26 13 3 27 1 30 -4 10 -17 -34 -121 -60 -142 -15 -11 -25 -30
-25 -45 0 -24 2 -24 43 -18 36 6 52 18 112 83 74 80 94 107 95 133 0 9 9 24
20 34 11 10 20 25 20 33 0 18 60 112 72 112 14 0 9 -67 -8 -110 -9 -22 -14
-55 -12 -74 3 -26 0 -32 -12 -29 -12 3 -20 -7 -28 -35 -18 -61 -16 -75 9 -61
12 6 24 20 26 30 3 12 14 19 29 19 14 0 28 9 35 22 7 13 18 29 26 36 7 7 13
20 13 27 0 8 8 29 19 47 10 18 21 55 25 82 3 27 12 57 19 65 17 20 38 73 73
179 29 87 44 93 36 14 -2 -26 3 -75 13 -111 10 -39 14 -78 10 -101 -6 -38 17
-101 51 -140 7 -9 18 -38 24 -65 11 -49 54 -125 71 -125 15 0 10 28 -15 103
-66 195 -87 294 -93 430 -3 84 -1 114 11 139 9 17 16 36 16 43 0 22 63 58 112
63 l48 5 0 69 c0 60 -3 72 -25 94 -16 16 -32 23 -43 20 -14 -5 -22 3 -35 32
-21 49 -21 52 3 52 11 0 20 -4 20 -10 0 -17 41 -31 71 -25 16 4 29 13 29 21 0
8 9 14 19 14 30 0 51 11 51 26 0 10 12 14 38 13 29 0 33 -2 17 -9 -19 -7 -18
-9 8 -19 40 -15 61 -14 87 7 20 16 21 23 15 75 -4 31 -11 57 -16 57 -5 0 -10
-6 -11 -12 0 -7 -4 30 -8 82 -7 104 -19 143 -31 100 -4 -15 -7 12 -8 65 -1 96
-8 135 -22 135 -5 0 -10 -12 -11 -27 -1 -16 -5 33 -8 107 -5 123 -7 135 -23
133 -17 -1 -18 7 -15 109 2 92 6 111 21 119 9 6 17 19 17 29 0 12 15 28 40 42
22 13 40 29 40 36 0 8 21 12 73 11 47 0 65 -3 52 -9 -19 -7 -19 -8 6 -18 15
-6 29 -18 33 -27 3 -9 10 -13 16 -10 6 4 10 -15 10 -52 0 -74 9 -106 26 -99
10 4 14 -3 14 -23 0 -39 9 -61 26 -61 11 0 14 -22 14 -109 0 -81 4 -112 14
-120 11 -9 15 -9 19 1 3 7 6 -13 6 -44 1 -47 5 -59 22 -68 11 -7 18 -18 15
-25 -3 -8 4 -25 15 -39 17 -21 29 -26 65 -26 32 0 44 4 44 15 0 11 12 15 50
15 38 0 50 -4 50 -15 0 -9 9 -15 23 -15 13 0 32 -9 42 -20 26 -29 105 -29 112
0 4 16 15 20 52 22 121 4 154 -8 166 -64 5 -21 11 -28 22 -24 13 5 14 -3 8
-58 -6 -58 -4 -67 15 -86 23 -23 42 -79 66 -193 17 -84 19 -87 50 -87 16 0 24
6 25 18 0 13 2 12 9 -6 5 -12 7 -29 4 -37 -4 -9 0 -15 10 -15 11 0 16 -9 16
-26 0 -14 -4 -23 -9 -19 -14 8 -41 -35 -48 -78 -3 -21 -12 -41 -19 -44 -18 -6
-54 15 -54 32 0 8 -20 37 -45 65 -25 28 -45 61 -45 73 0 13 -4 27 -9 33 -18
19 -111 207 -111 224 0 20 -67 90 -86 90 -26 0 -23 -36 6 -96 16 -34 30 -73
30 -86 0 -13 4 -28 9 -33 6 -6 15 -39 20 -75 8 -46 21 -79 46 -115 45 -66 47
-108 6 -125 -38 -15 -51 -7 -51 35 0 31 -14 54 -26 42 -3 -2 -6 -34 -8 -70 -3
-64 -16 -97 -40 -97 -12 0 -68 -54 -111 -107 -18 -22 -43 -37 -79 -47 -29 -9
-64 -24 -77 -35 -14 -11 -47 -30 -74 -43 -35 -16 -55 -34 -67 -57 -34 -69 -71
-99 -128 -107 -44 -6 -60 -14 -97 -50 -44 -44 -54 -48 -125 -58 -107 -14 -180
-85 -148 -143 8 -15 35 -40 59 -58 25 -17 49 -43 54 -58 10 -32 3 -47 -15 -29
-19 19 -28 14 -28 -17 0 -21 16 -45 63 -95 35 -36 68 -66 75 -66 6 0 14 -9 17
-20 6 -20 15 -20 546 -20 l539 0 0 22 c0 26 -49 128 -61 128 -5 0 -9 22 -9 50
0 38 -4 52 -19 59 -42 23 -52 202 -18 341 9 36 23 97 31 135 8 39 19 83 25 98
6 16 11 38 11 50 0 39 20 95 36 101 18 7 55 -10 67 -30 4 -8 12 -14 17 -14 6
0 10 754 10 2030 l0 2030 -2500 0 -2500 0 0 -2071z m2919 -394 c154 -59 206
-116 180 -200 -7 -22 -18 -45 -25 -51 -7 -6 -22 -33 -33 -60 -24 -61 -67 -138
-86 -154 -34 -28 -88 37 -151 185 -38 89 -99 200 -132 240 -14 18 -22 45 -16
60 5 12 24 15 88 15 68 0 96 -6 175 -35z m371 -759 c0 -15 -7 -26 -20 -29 -14
-4 -20 -14 -20 -35 0 -21 -6 -31 -20 -35 -17 -4 -20 -14 -20 -63 0 -71 17 -94
72 -94 27 0 38 -4 38 -15 0 -8 6 -15 13 -15 8 0 7 -4 -3 -10 -24 -15 -106 -12
-120 5 -7 8 -18 15 -25 15 -16 0 -63 37 -75 60 -8 15 -5 25 15 46 14 15 25 31
25 35 0 5 11 11 25 15 16 4 25 13 25 25 0 10 9 24 20 31 11 7 20 22 20 33 0
30 12 43 48 54 1 1 2 -10 2 -23z"/>
</g>
</svg>
